<?xml version="1.0" encoding="utf-8"?>
<!-- Generator: Adobe Illustrator 27.6.1, SVG Export Plug-In . SVG Version: 6.00 Build 0)  -->
<svg version="1.1" id="Layer_1" xmlns="http://www.w3.org/2000/svg" xmlns:xlink="http://www.w3.org/1999/xlink" x="0px" y="0px"
	 viewBox="0 0 220 144" style="enable-background:new 0 0 220 144;" xml:space="preserve">
<style type="text/css">
	.st0{display:none;}
	.st1{display:inline;}
	.st2{display:inline;fill:none;stroke:#FFFFFF;stroke-miterlimit:10;}
	.st3{fill:none;stroke:#FFFFFF;stroke-miterlimit:10;}
	
		.st4{display:inline;fill:none;stroke:url(#SVGID_00000016790744825396253300000000142127465097605524_);stroke-width:2;stroke-miterlimit:10;}
	.st5{fill:none;stroke:url(#SVGID_00000162332968699817320770000012789273516996939700_);stroke-width:2;stroke-miterlimit:10;}
	.st6{fill:none;stroke:url(#SVGID_00000036940431957838951680000011122785824254166690_);stroke-width:2;stroke-miterlimit:10;}
	.st7{fill:none;stroke:url(#SVGID_00000083064841286436276550000009546094692854598815_);stroke-width:2;stroke-miterlimit:10;}
	.st8{fill:none;stroke:url(#SVGID_00000183928089376462070000000011400296537161493413_);stroke-width:2;stroke-miterlimit:10;}
	.st9{fill:#FFFFFF;}
	.st10{fill:url(#SVGID_00000090253302405712278410000016868635607292262785_);}
	.st11{fill:url(#SVGID_00000077322586660864431660000013135190805032704176_);}
	.st12{fill:url(#SVGID_00000142169969590217473980000003965486321981342901_);}
	.st13{fill:url(#SVGID_00000049928170365770857470000013111937748046776216_);}
	.st14{fill:none;stroke:url(#SVGID_00000031205643030490435650000001062342854283190455_);stroke-width:2;stroke-miterlimit:10;}
	.st15{fill:none;stroke:url(#SVGID_00000130630712813833130970000008999530706669835436_);stroke-width:2;stroke-miterlimit:10;}
	.st16{fill:none;stroke:url(#SVGID_00000026121722016260350660000015755730778102210233_);stroke-width:2;stroke-miterlimit:10;}
	.st17{fill:none;stroke:url(#SVGID_00000124135697075008649110000013742876806978369667_);stroke-width:2;stroke-miterlimit:10;}
	.st18{fill:none;stroke:url(#SVGID_00000137110421369965763210000012422125961580336052_);stroke-width:2;stroke-miterlimit:10;}
	.st19{fill:none;stroke:url(#SVGID_00000085941550967018361750000008144808711761163926_);stroke-width:2;stroke-miterlimit:10;}
</style>
<g>
	<rect x="-1182" y="1111" width="1920" height="1080"/>
</g>
<text transform="matrix(1 0 0 1 -1007.2236 1063.2734)" class="st9" style="font-family:'MyriadPro-Regular'; font-size:73.2604px;">LOGO</text>
<g class="st0">
	<g class="st1">
		<defs>
			<circle id="SVGID_1_" cx="-221.9" cy="1849.2" r="211.8"/>
		</defs>
		<clipPath id="SVGID_00000092430388709373156160000010309959699099477913_">
			<use xlink:href="#SVGID_1_"  style="overflow:visible;"/>
		</clipPath>
		<g style="clip-path:url(#SVGID_00000092430388709373156160000010309959699099477913_);">
			
				<image style="overflow:visible;" width="1448" height="2752" xlink:href="../../../../Users/simon/Downloads/Sima.png"  transform="matrix(0.2816 0 0 0.2816 -434.0183 1510.8618)">
			</image>
		</g>
	</g>
	<circle class="st2" cx="-222.1" cy="1848.9" r="211.8"/>
</g>
<g>
	<g>
		<defs>
			<circle id="SVGID_00000077320839413501752360000000625371476621282994_" cx="-222" cy="1848.8" r="211.8"/>
		</defs>
		<clipPath id="SVGID_00000101822368119931012690000012701266516655672224_">
			<use xlink:href="#SVGID_00000077320839413501752360000000625371476621282994_"  style="overflow:visible;"/>
		</clipPath>
		<g transform="matrix(1 0 0 1 0 0)" style="clip-path:url(#SVGID_00000101822368119931012690000012701266516655672224_);">
			
				<image style="overflow:visible;" width="2208" height="2428" xlink:href="../../../../Users/simon/Downloads/Simca.png"  transform="matrix(0.2378 0 0 0.2378 -411.8358 1499)">
			</image>
		</g>
	</g>
	<circle class="st3" cx="-222" cy="1849.3" r="211.8"/>
</g>
<text transform="matrix(1 0 0 1 -603.6533 1413.1436)" class="st9" style="font-family:'AlbertanPro-Light'; font-size:80.2725px;">DESIGN PORTFOLIO</text>
<g>
	
		<text transform="matrix(1 0 0 1 -494.6057 1516.6143)" class="st9" style="font-family:'Acuta-MediumItalic'; font-size:65.4288px;">Simona Prokopová</text>
</g>
<g class="st0">
	<g class="st1">
		<defs>
			<circle id="SVGID_00000140713444198296231710000003691715540383049864_" cx="-222.2" cy="1848.6" r="211.8"/>
		</defs>
		<clipPath id="SVGID_00000160148128870993708710000015320705962773563327_">
			<use xlink:href="#SVGID_00000140713444198296231710000003691715540383049864_"  style="overflow:visible;"/>
		</clipPath>
		<g transform="matrix(1 0 0 1 0 0)" style="clip-path:url(#SVGID_00000160148128870993708710000015320705962773563327_);">
			
				<image style="overflow:visible;" width="1448" height="2232" xlink:href="../../../../Users/simon/Downloads/SIMCUS.png"  transform="matrix(0.2746 0 0 0.2746 -441.3571 1600)">
			</image>
		</g>
		
			<linearGradient id="SVGID_00000110461506760174861410000004244530944475227566_" gradientUnits="userSpaceOnUse" x1="-434.9643" y1="1848.5714" x2="-9.4643" y2="1848.5714">
			<stop  offset="6.341186e-07" style="stop-color:#AA0034"/>
			<stop  offset="1" style="stop-color:#170094"/>
		</linearGradient>
		
			<use xlink:href="#SVGID_00000140713444198296231710000003691715540383049864_"  style="overflow:visible;fill:none;stroke:url(#SVGID_00000110461506760174861410000004244530944475227566_);stroke-width:2;stroke-miterlimit:10;"/>
	</g>
	
		<linearGradient id="SVGID_00000168099901808343001010000007480541660081154219_" gradientUnits="userSpaceOnUse" x1="-434.5357" y1="1849" x2="-9.0357" y2="1849">
		<stop  offset="6.341186e-07" style="stop-color:#AA0034"/>
		<stop  offset="1" style="stop-color:#170094"/>
	</linearGradient>
	
		<circle style="display:inline;fill:none;stroke:url(#SVGID_00000168099901808343001010000007480541660081154219_);stroke-width:2;stroke-miterlimit:10;" cx="-221.8" cy="1849" r="211.8"/>
</g>
<g>
	<rect x="758.1" y="1110.6" width="1920" height="1080"/>
</g>
<linearGradient id="SVGID_00000011753534157288317870000015017234977674157186_" gradientUnits="userSpaceOnUse" x1="903" y1="1722.5" x2="1250" y2="1722.5">
	<stop  offset="6.341186e-07" style="stop-color:#AA0034"/>
	<stop  offset="1" style="stop-color:#170094"/>
</linearGradient>
<circle style="fill:none;stroke:url(#SVGID_00000011753534157288317870000015017234977674157186_);stroke-width:2;stroke-miterlimit:10;" cx="1076.5" cy="1722.5" r="172.5"/>
<text transform="matrix(1 0 0 1 1005.4722 1743.3413)" class="st9" style="font-family:'Acuta-MediumItalic'; font-size:73px;">Tlač</text>
<linearGradient id="SVGID_00000079485151518175613270000014629503263491589804_" gradientUnits="userSpaceOnUse" x1="1333.2026" y1="1722.9006" x2="1680.2026" y2="1722.9006">
	<stop  offset="6.341186e-07" style="stop-color:#AA0034"/>
	<stop  offset="1" style="stop-color:#170094"/>
</linearGradient>
<circle style="fill:none;stroke:url(#SVGID_00000079485151518175613270000014629503263491589804_);stroke-width:2;stroke-miterlimit:10;" cx="1506.7" cy="1722.9" r="172.5"/>
<text transform="matrix(1 0 0 1 1384.3691 1742.9678)" class="st9" style="font-family:'Acuta-MediumItalic'; font-size:60.9761px;">Soc. siete</text>
<linearGradient id="SVGID_00000152257338576322286110000007280421220486828678_" gradientUnits="userSpaceOnUse" x1="1769.8345" y1="1722.5" x2="2116.8345" y2="1722.5">
	<stop  offset="6.341186e-07" style="stop-color:#AA0034"/>
	<stop  offset="1" style="stop-color:#170094"/>
</linearGradient>
<circle style="fill:none;stroke:url(#SVGID_00000152257338576322286110000007280421220486828678_);stroke-width:2;stroke-miterlimit:10;" cx="1943.3" cy="1722.5" r="172.5"/>
<text transform="matrix(1 0 0 1 1842.4131 1744.9841)" class="st9" style="font-family:'Acuta-MediumItalic'; font-size:73px;">Tričko</text>
<linearGradient id="SVGID_00000153689450866874385700000008693955484691734200_" gradientUnits="userSpaceOnUse" x1="2199.2808" y1="1722.5" x2="2546.2808" y2="1722.5">
	<stop  offset="6.341186e-07" style="stop-color:#AA0034"/>
	<stop  offset="1" style="stop-color:#170094"/>
</linearGradient>
<circle style="fill:none;stroke:url(#SVGID_00000153689450866874385700000008693955484691734200_);stroke-width:2;stroke-miterlimit:10;" cx="2372.8" cy="1722.5" r="172.5"/>
<text transform="matrix(1 0 0 1 2319.8555 1742.8411)" class="st9" style="font-family:'Acuta-MediumItalic'; font-size:73px;">Iné</text>
<g>
	<g>
		<g>
			<path class="st9" d="M-1000.9,825.6c6.2-5.8,11.3-8.2,13.6-9.4c2.3-1.1,14.2-6.8,27.1-0.4c12.9,6.4,7.5,23.4,3.7,25.4
				c-6.2,3-8.8,0-5-6.8c2.6-6.8-4-13.7-9.1-10.8c-3.8,1-12.5,11.8-16.3,18.6c-11.8,18.6,2.4,18.6,7.5,20.5
				c17.9,7.8,21.5,12.6,22.8,23.4c0.8,17.3-15.2,24.4-20.3,25.4c-7.5,2-22.8,1.1-27.9-0.8c-6.2-3-8.9-6-8.9-14.7
				c0-7.8,2.6-12.8,7.7-11.8c2.5,0,2.5,0.1,2.5,7.9c-2.3,14.6,7.5,12.8,11.3,8.8c7.5-6.8,11.5-16.7,8.9-23.5
				c-1.3-6.8-8.8-10.6-22.8-13.6c-9.9-2.1-10.2-11.8-7.7-18.6C-1011.1,838.4-1007.1,832.4-1000.9,825.6z"/>
			<path class="st9" d="M-950.4,846.4c-0.7-28.1-0.3-31.6,3.8-33.4c0.7,0,4.8,0,7.9,0c7.9,0,13.6,1.7,14.3,4.8
				c-1.8,19.8,0.9,46.9,0.9,46.3c0,0,2-8.1,3.7-12.9c4.8-13.5,8.6-25.6,13.5-30.7c2.4-2.3,5.5-2.8,7.2-1.3c0.7,0.7,1.4,4.4,1.4,26.9
				c0,25.6,0,25.6,2.4,13.9c5.5-24.1,8.1-32.3,10.5-35.1c1.7-1.6,5.5-1.6,7.2,0.7c2.4,3.7,4.8,20.5,5.5,40.9
				c1.4,28.9,8.2,39.5,8.8,40.2c6.9,10.5-5.7,11.1-8.1,8.8c-5.5-5.1-8.6-19.7-11-46.8c0-9.5-1-16-1.7-15.3c-1.7,2.8-5,24.1-5.7,39.4
				c0.4,27.6-12,24.2-12.8,22.7c-3.1-2.8-5-24.2-5.7-51.3c-0.7-22.5-0.7-22.5-2.4-17.4c-2.4,5.8-10.1,23.5-10.6,36.8
				c1.1,21-3.8,28.1-8.6,28.1c-5.5,0.6-9.5-2-12.6-6.8C-946.6,899.4-948.7,880.6-950.4,846.4z"/>
			<path class="st9" d="M-848.3,830.1c2-11.9,3-15.7,6.1-16.6c5.1-0.9,12.5,0.7,15.6,3.1c2,1.6,2,2.4,2,5.5
				c0,2.4,14.5,40.4,14.5,41.2c1.1,0,9.6-2.4,14.7-4c5.7-0.7,6.5,5,0.4,6.7c-2,0-13,4.5-13,4.5c0,1.6,8.8,26.4,14.2,31.9
				c2,4-1.8,6.7-5.5,5.2c-8.1-3.5-17.6-34.9-17.6-34.9c-6.7,1.8-15.4,3.1-15.4,3.1s-5,18.6-11.8,25.5c-8.8,7.4-19.6,2-22.7-0.9
				c-3.8-3.4,5.1-22.5,5.1-22.5c-6.2,0-6.2-7.7,2-6.5C-859.7,871.7-852.7,854.8-848.3,830.1z M-829.8,867.4c0,0,9.2-1.6,10.3-2.4
				l-6.2-19.8C-827.7,850.7-829.8,867.4-829.8,867.4z"/>
		</g>
		<path class="st9" d="M-951.6,799.6c-2.8-3.2,1.1-12.5,6-14c15.3-4.3,21.7,0,27.4,3.6c7.4,7,0.9,17.9-15.5,17.2
			C-937.6,806-945.4,806.2-951.6,799.6z"/>
	</g>
	<g>
		<g>
			
				<linearGradient id="SVGID_00000135658746515758803280000009969270530985488051_" gradientUnits="userSpaceOnUse" x1="-722.8891" y1="1463.6614" x2="-722.8891" y2="1330.7548" gradientTransform="matrix(1 0 0 1 -180 -546.9875)">
				<stop  offset="6.341186e-07" style="stop-color:#AA0034"/>
				<stop  offset="1" style="stop-color:#170094"/>
			</linearGradient>
			<path style="fill:url(#SVGID_00000135658746515758803280000009969270530985488051_);" d="M-1000.9,825.6
				c6.2-5.8,11.3-8.2,13.6-9.4c2.3-1.1,14.2-6.8,27.1-0.4c12.9,6.4,7.5,23.4,3.7,25.4c-6.2,3-8.8,0-5-6.8c2.6-6.8-4-13.7-9.1-10.8
				c-3.8,1-12.5,11.8-16.3,18.6c-11.8,18.6,2.4,18.6,7.5,20.5c17.9,7.8,21.5,12.6,22.8,23.4c0.8,17.3-15.2,24.4-20.3,25.4
				c-7.5,2-22.8,1.1-27.9-0.8c-6.2-3-8.9-6-8.9-14.7c0-7.8,2.6-12.8,7.7-11.8c2.5,0,2.5,0.1,2.5,7.9c-2.3,14.6,7.5,12.8,11.3,8.8
				c7.5-6.8,11.5-16.7,8.9-23.5c-1.3-6.8-8.8-10.6-22.8-13.6c-9.9-2.1-10.2-11.8-7.7-18.6C-1011.1,838.4-1007.1,832.4-1000.9,825.6z
				"/>
			
				<linearGradient id="SVGID_00000003783900211374069100000018104784383878077582_" gradientUnits="userSpaceOnUse" x1="-722.8891" y1="1463.6614" x2="-722.8891" y2="1330.7548" gradientTransform="matrix(1 0 0 1 -180 -546.9875)">
				<stop  offset="6.341186e-07" style="stop-color:#AA0034"/>
				<stop  offset="1" style="stop-color:#170094"/>
			</linearGradient>
			<path style="fill:url(#SVGID_00000003783900211374069100000018104784383878077582_);" d="M-950.4,846.4
				c-0.7-28.1-0.3-31.6,3.8-33.4c0.7,0,4.8,0,7.9,0c7.9,0,13.6,1.7,14.3,4.8c-1.8,19.8,0.9,46.9,0.9,46.3c0,0,2-8.1,3.7-12.9
				c4.8-13.5,8.6-25.6,13.5-30.7c2.4-2.3,5.5-2.8,7.2-1.3c0.7,0.7,1.4,4.4,1.4,26.9c0,25.6,0,25.6,2.4,13.9
				c5.5-24.1,8.1-32.3,10.5-35.1c1.7-1.6,5.5-1.6,7.2,0.7c2.4,3.7,4.8,20.5,5.5,40.9c1.4,28.9,8.2,39.5,8.8,40.2
				c6.9,10.5-5.7,11.1-8.1,8.8c-5.5-5.1-8.6-19.7-11-46.8c0-9.5-1-16-1.7-15.3c-1.7,2.8-5,24.1-5.7,39.4c0.4,27.6-12,24.2-12.8,22.7
				c-3.1-2.8-5-24.2-5.7-51.3c-0.7-22.5-0.7-22.5-2.4-17.4c-2.4,5.8-10.1,23.5-10.6,36.8c1.1,21-3.8,28.1-8.6,28.1
				c-5.5,0.6-9.5-2-12.6-6.8C-946.6,899.4-948.7,880.6-950.4,846.4z"/>
			
				<linearGradient id="SVGID_00000073717485920032939650000015765358926841206431_" gradientUnits="userSpaceOnUse" x1="-722.8891" y1="1463.6614" x2="-722.8891" y2="1330.7548" gradientTransform="matrix(1 0 0 1 -180 -546.9875)">
				<stop  offset="6.341186e-07" style="stop-color:#AA0034"/>
				<stop  offset="1" style="stop-color:#170094"/>
			</linearGradient>
			<path style="fill:url(#SVGID_00000073717485920032939650000015765358926841206431_);" d="M-848.3,830.1c2-11.9,3-15.7,6.1-16.6
				c5.1-0.9,12.5,0.7,15.6,3.1c2,1.6,2,2.4,2,5.5c0,2.4,14.5,40.4,14.5,41.2c1.1,0,9.6-2.4,14.7-4c5.7-0.7,6.5,5,0.4,6.7
				c-2,0-13,4.5-13,4.5c0,1.6,8.8,26.4,14.2,31.9c2,4-1.8,6.7-5.5,5.2c-8.1-3.5-17.6-34.9-17.6-34.9c-6.7,1.8-15.4,3.1-15.4,3.1
				s-5,18.6-11.8,25.5c-8.8,7.4-19.6,2-22.7-0.9c-3.8-3.4,5.1-22.5,5.1-22.5c-6.2,0-6.2-7.7,2-6.5
				C-859.7,871.7-852.7,854.8-848.3,830.1z M-829.8,867.4c0,0,9.2-1.6,10.3-2.4l-6.2-19.8C-827.7,850.7-829.8,867.4-829.8,867.4z"/>
		</g>
		
			<linearGradient id="SVGID_00000018209328259279820380000014893553058613757620_" gradientUnits="userSpaceOnUse" x1="-722.8891" y1="1463.6614" x2="-722.8891" y2="1330.7548" gradientTransform="matrix(1 0 0 1 -180 -546.9875)">
			<stop  offset="6.341186e-07" style="stop-color:#AA0034"/>
			<stop  offset="1" style="stop-color:#170094"/>
		</linearGradient>
		<path style="fill:url(#SVGID_00000018209328259279820380000014893553058613757620_);" d="M-951.6,799.6c-2.8-3.2,1.1-12.5,6-14
			c15.3-4.3,21.7,0,27.4,3.6c7.4,7,0.9,17.9-15.5,17.2C-937.6,806-945.4,806.2-951.6,799.6z"/>
	</g>
</g>
<g>
	
		<text transform="matrix(1 0 0 1 271.7832 1228.3564)" class="st9" style="font-family:'AbrilDisplay-Regular'; font-size:34.5743px;">Práca</text>
	
		<text transform="matrix(1 0 0 1 424.686 1229.1477)" class="st9" style="font-family:'AbrilDisplay-Regular'; font-size:34.5743px;">Kontakt</text>
	
		<linearGradient id="SVGID_00000032638928997285774580000018391180721376458378_" gradientUnits="userSpaceOnUse" x1="-1022.7059" y1="1211.4791" x2="-806.7059" y2="1211.4791">
		<stop  offset="6.341186e-07" style="stop-color:#AA0034"/>
		<stop  offset="1" style="stop-color:#170094"/>
	</linearGradient>
	
		<path style="fill:none;stroke:url(#SVGID_00000032638928997285774580000018391180721376458378_);stroke-width:2;stroke-miterlimit:10;" d="
		M-833.4,1279h-162.7c-14.2,0-25.7-11.5-25.7-25.7v-83.7c0-14.2,11.5-25.7,25.7-25.7h162.7c14.2,0,25.7,11.5,25.7,25.7v83.7
		C-807.7,1267.5-819.2,1279-833.4,1279z"/>
	<g>
		<g>
			<path class="st9" d="M-992.4,1192c4.9-4.6,9-6.5,10.8-7.4c1.8-0.9,11.2-5.4,21.5-0.3c10.2,5.1,6,18.5,2.9,20.1
				c-4.9,2.4-7,0-3.9-5.4c2-5.4-3.1-10.9-7.2-8.5c-3,0.8-9.9,9.3-12.9,14.7c-9.3,14.7,1.9,14.7,6,16.3c14.2,6.2,17.1,10,18.1,18.5
				c0.7,13.7-12,19.3-16.1,20.1c-6,1.6-18.1,0.9-22.1-0.7c-4.9-2.4-7.1-4.7-7.1-11.7c0-6.2,2-10.1,6.1-9.3c2,0,2,0.1,2,6.3
				c-1.8,11.6,6,10.1,9,7c6-5.4,9.1-13.3,7.1-18.6c-1-5.4-7-8.4-18.1-10.8c-7.9-1.7-8.1-9.3-6.1-14.7
				C-1000.5,1202.1-997.3,1197.4-992.4,1192z"/>
			<path class="st9" d="M-952.4,1208.5c-0.6-22.2-0.2-25.1,3-26.5c0.6,0,3.8,0,6.3,0c6.3,0,10.8,1.3,11.3,3.8
				c-1.5,15.7,0.7,37.2,0.7,36.7c0,0,1.6-6.4,2.9-10.2c3.8-10.7,6.9-20.3,10.7-24.4c1.9-1.8,4.4-2.2,5.7-1c0.6,0.6,1.1,3.5,1.1,21.3
				c0,20.3,0,20.3,1.9,11c4.4-19.1,6.4-25.6,8.3-27.9c1.3-1.2,4.4-1.2,5.7,0.6c1.9,2.9,3.8,16.3,4.4,32.5c1.1,22.9,6.5,31.3,7,31.9
				c5.5,8.3-4.5,8.8-6.4,7c-4.4-4-6.9-15.6-8.8-37.1c0-7.5-0.8-12.7-1.3-12.1c-1.3,2.2-3.9,19.1-4.5,31.2c0.3,21.9-9.5,19.2-10.1,18
				c-2.5-2.2-3.9-19.2-4.5-40.7c-0.6-17.9-0.6-17.9-1.9-13.8c-1.9,4.6-8,18.6-8.4,29.2c0.9,16.6-3,22.2-6.9,22.2
				c-4.4,0.4-7.5-1.6-10-5.4C-949.4,1250.5-951.1,1235.6-952.4,1208.5z"/>
			<path class="st9" d="M-871.4,1195.6c1.6-9.4,2.4-12.5,4.8-13.1c4-0.7,9.9,0.6,12.4,2.5c1.6,1.2,1.6,1.9,1.6,4.4
				c0,1.9,11.5,32,11.5,32.7c0.9,0,7.6-1.9,11.7-3.1c4.5-0.6,5.2,3.9,0.3,5.3c-1.6,0-10.3,3.6-10.3,3.6c0,1.2,7,20.9,11.2,25.3
				c1.6,3.1-1.5,5.3-4.4,4.2c-6.4-2.8-13.9-27.6-13.9-27.6c-5.3,1.5-12.2,2.5-12.2,2.5s-3.9,14.7-9.3,20.2c-7,5.8-15.5,1.6-18-0.7
				c-3-2.7,4-17.9,4-17.9c-4.9,0-4.9-6.1,1.6-5.2C-880.5,1228.5-874.9,1215.1-871.4,1195.6z M-856.8,1225.1c0,0,7.3-1.2,8.2-1.9
				l-4.9-15.7C-855.1,1211.8-856.8,1225.1-856.8,1225.1z"/>
		</g>
		<path class="st9" d="M-953.3,1171.3c-2.2-2.5,0.8-9.9,4.7-11.1c12.1-3.4,17.2,0,21.7,2.9c5.9,5.6,0.7,14.2-12.3,13.7
			C-942.2,1176.4-948.4,1176.6-953.3,1171.3z"/>
	</g>
</g>
<g>
	
		<text transform="matrix(1 0 0 1 2226.2673 1246.0677)" class="st9" style="font-family:'AbrilDisplay-Regular'; font-size:34.5743px;">Práca</text>
	
		<text transform="matrix(1 0 0 1 2379.1699 1246.859)" class="st9" style="font-family:'AbrilDisplay-Regular'; font-size:34.5743px;">Kontakt</text>
	
		<linearGradient id="SVGID_00000169546695867588211160000004204426485546110603_" gradientUnits="userSpaceOnUse" x1="931.7783" y1="1229.1904" x2="1147.7782" y2="1229.1904">
		<stop  offset="6.341186e-07" style="stop-color:#AA0034"/>
		<stop  offset="1" style="stop-color:#170094"/>
	</linearGradient>
	
		<path style="fill:none;stroke:url(#SVGID_00000169546695867588211160000004204426485546110603_);stroke-width:2;stroke-miterlimit:10;" d="
		M1121.1,1296.7H958.4c-14.2,0-25.7-11.5-25.7-25.7v-83.7c0-14.2,11.5-25.7,25.7-25.7h162.7c14.2,0,25.7,11.5,25.7,25.7v83.7
		C1146.8,1285.2,1135.3,1296.7,1121.1,1296.7z"/>
	<g>
		<g>
			<path class="st9" d="M962.1,1209.7c4.9-4.6,9-6.5,10.8-7.4c1.8-0.9,11.2-5.4,21.5-0.3c10.2,5.1,6,18.5,2.9,20.1
				c-4.9,2.4-7,0-3.9-5.4c2-5.4-3.1-10.9-7.2-8.5c-3,0.8-9.9,9.3-12.9,14.7c-9.3,14.7,1.9,14.7,6,16.3c14.2,6.2,17.1,10,18.1,18.5
				c0.7,13.7-12,19.3-16.1,20.1c-6,1.6-18.1,0.9-22.1-0.7c-4.9-2.4-7.1-4.7-7.1-11.7c0-6.2,2-10.1,6.1-9.3c2,0,2,0.1,2,6.3
				c-1.8,11.6,6,10.1,9,7c6-5.4,9.1-13.3,7.1-18.6c-1-5.4-7-8.4-18.1-10.8c-7.9-1.7-8.1-9.3-6.1-14.7
				C954,1219.8,957.1,1215.1,962.1,1209.7z"/>
			<path class="st9" d="M1002.1,1226.2c-0.6-22.2-0.2-25.1,3-26.5c0.6,0,3.8,0,6.3,0c6.3,0,10.8,1.3,11.3,3.8
				c-1.5,15.7,0.7,37.2,0.7,36.7c0,0,1.6-6.4,2.9-10.2c3.8-10.7,6.9-20.3,10.7-24.4c1.9-1.8,4.4-2.2,5.7-1c0.6,0.6,1.1,3.5,1.1,21.3
				c0,20.3,0,20.3,1.9,11c4.4-19.1,6.4-25.6,8.3-27.9c1.3-1.2,4.4-1.2,5.7,0.6c1.9,2.9,3.8,16.3,4.4,32.5c1.1,22.9,6.5,31.3,7,31.9
				c5.5,8.3-4.5,8.8-6.4,7c-4.4-4-6.9-15.6-8.8-37.1c0-7.5-0.8-12.7-1.3-12.1c-1.3,2.2-3.9,19.1-4.5,31.2c0.3,21.9-9.5,19.2-10.1,18
				c-2.5-2.2-3.9-19.2-4.5-40.7c-0.6-17.9-0.6-17.9-1.9-13.8c-1.9,4.6-8,18.6-8.4,29.2c0.9,16.6-3,22.2-6.9,22.2
				c-4.4,0.4-7.5-1.6-10-5.4C1005.1,1268.2,1003.4,1253.3,1002.1,1226.2z"/>
			<path class="st9" d="M1083.1,1213.3c1.6-9.4,2.4-12.5,4.8-13.1c4-0.7,9.9,0.6,12.4,2.5c1.6,1.2,1.6,1.9,1.6,4.4
				c0,1.9,11.5,32,11.5,32.7c0.9,0,7.6-1.9,11.7-3.1c4.5-0.6,5.2,3.9,0.3,5.3c-1.6,0-10.3,3.6-10.3,3.6c0,1.2,7,20.9,11.2,25.3
				c1.6,3.1-1.5,5.3-4.4,4.2c-6.4-2.8-13.9-27.6-13.9-27.6c-5.3,1.5-12.2,2.5-12.2,2.5s-3.9,14.7-9.3,20.2c-7,5.8-15.5,1.6-18-0.7
				c-3-2.7,4-17.9,4-17.9c-4.9,0-4.9-6.1,1.6-5.2C1074,1246.2,1079.6,1232.8,1083.1,1213.3z M1097.7,1242.8c0,0,7.3-1.2,8.2-1.9
				l-4.9-15.7C1099.4,1229.6,1097.7,1242.8,1097.7,1242.8z"/>
		</g>
		<path class="st9" d="M1001.1,1189c-2.2-2.5,0.8-9.9,4.7-11.1c12.1-3.4,17.2,0,21.7,2.9c5.9,5.6,0.7,14.2-12.3,13.7
			C1012.3,1194.1,1006,1194.3,1001.1,1189z"/>
	</g>
</g>
<g>
	<rect x="2698" y="1111" width="1920" height="1983"/>
</g>
<g>
	
		<text transform="matrix(1 0 0 1 4166.1245 1246.4249)" class="st9" style="font-family:'AbrilDisplay-Regular'; font-size:34.5743px;">Práca</text>
	
		<text transform="matrix(1 0 0 1 4319.0269 1247.2162)" class="st9" style="font-family:'AbrilDisplay-Regular'; font-size:34.5743px;">Kontakt</text>
	
		<linearGradient id="SVGID_00000013915572190201553040000015900401874009099174_" gradientUnits="userSpaceOnUse" x1="2871.6353" y1="1229.5476" x2="3087.6353" y2="1229.5476">
		<stop  offset="6.341186e-07" style="stop-color:#AA0034"/>
		<stop  offset="1" style="stop-color:#170094"/>
	</linearGradient>
	
		<path style="fill:none;stroke:url(#SVGID_00000013915572190201553040000015900401874009099174_);stroke-width:2;stroke-miterlimit:10;" d="
		M3061,1297h-162.7c-14.2,0-25.7-11.5-25.7-25.7v-83.7c0-14.2,11.5-25.7,25.7-25.7H3061c14.2,0,25.7,11.5,25.7,25.7v83.7
		C3086.6,1285.6,3075.2,1297,3061,1297z"/>
	<g>
		<g>
			<path class="st9" d="M2901.9,1210c4.9-4.6,9-6.5,10.8-7.4c1.8-0.9,11.2-5.4,21.5-0.3c10.2,5.1,6,18.5,2.9,20.1
				c-4.9,2.4-7,0-3.9-5.4c2-5.4-3.1-10.9-7.2-8.5c-3,0.8-9.9,9.3-12.9,14.7c-9.3,14.7,1.9,14.7,6,16.3c14.2,6.2,17.1,10,18.1,18.5
				c0.7,13.7-12,19.3-16.1,20.1c-6,1.6-18.1,0.9-22.1-0.7c-4.9-2.4-7.1-4.7-7.1-11.7c0-6.2,2-10.1,6.1-9.3c2,0,2,0.1,2,6.3
				c-1.8,11.6,6,10.1,9,7c6-5.4,9.1-13.3,7.1-18.6c-1-5.4-7-8.4-18.1-10.8c-7.9-1.7-8.1-9.3-6.1-14.7
				C2893.9,1220.1,2897,1215.4,2901.9,1210z"/>
			<path class="st9" d="M2941.9,1226.5c-0.6-22.2-0.2-25.1,3-26.5c0.6,0,3.8,0,6.3,0c6.3,0,10.8,1.3,11.3,3.8
				c-1.5,15.7,0.7,37.2,0.7,36.7c0,0,1.6-6.4,2.9-10.2c3.8-10.7,6.9-20.3,10.7-24.4c1.9-1.8,4.4-2.2,5.7-1c0.6,0.6,1.1,3.5,1.1,21.3
				c0,20.3,0,20.3,1.9,11c4.4-19.1,6.4-25.6,8.3-27.9c1.3-1.2,4.4-1.2,5.7,0.6c1.9,2.9,3.8,16.3,4.4,32.5c1.1,22.9,6.5,31.3,7,31.9
				c5.5,8.3-4.5,8.8-6.4,7c-4.4-4-6.9-15.6-8.8-37.1c0-7.5-0.8-12.7-1.3-12.1c-1.3,2.2-3.9,19.1-4.5,31.2c0.3,21.9-9.5,19.2-10.1,18
				c-2.5-2.2-3.9-19.2-4.5-40.7c-0.6-17.9-0.6-17.9-1.9-13.8c-1.9,4.6-8,18.6-8.4,29.2c0.9,16.6-3,22.2-6.9,22.2
				c-4.4,0.4-7.5-1.6-10-5.4C2945,1268.6,2943.3,1253.6,2941.9,1226.5z"/>
			<path class="st9" d="M3022.9,1213.6c1.6-9.4,2.4-12.5,4.8-13.1c4-0.7,9.9,0.6,12.4,2.5c1.6,1.2,1.6,1.9,1.6,4.4
				c0,1.9,11.5,32,11.5,32.7c0.9,0,7.6-1.9,11.7-3.1c4.5-0.6,5.2,3.9,0.3,5.3c-1.6,0-10.3,3.6-10.3,3.6c0,1.2,7,20.9,11.2,25.3
				c1.6,3.1-1.5,5.3-4.4,4.2c-6.4-2.8-13.9-27.6-13.9-27.6c-5.3,1.5-12.2,2.5-12.2,2.5s-3.9,14.7-9.3,20.2c-7,5.8-15.5,1.6-18-0.7
				c-3-2.7,4-17.9,4-17.9c-4.9,0-4.9-6.1,1.6-5.2C3013.8,1246.5,3019.5,1233.2,3022.9,1213.6z M3037.5,1243.2c0,0,7.3-1.2,8.2-1.9
				l-4.9-15.7C3039.2,1229.9,3037.5,1243.2,3037.5,1243.2z"/>
		</g>
		<path class="st9" d="M2941,1189.4c-2.2-2.5,0.8-9.9,4.7-11.1c12.1-3.4,17.2,0,21.7,2.9c5.9,5.6,0.7,14.2-12.3,13.7
			C2952.1,1194.5,2945.9,1194.6,2941,1189.4z"/>
	</g>
</g>
<text transform="matrix(1 0 0 1 3399.2383 1425.3809)" class="st9" style="font-family:'Acuta-Medium'; font-size:73px;">TLAČOVINY</text>
<linearGradient id="SVGID_00000170968560246844994970000000856201694514125212_" gradientUnits="userSpaceOnUse" x1="2801.5" y1="1474" x2="4514.5" y2="1474">
	<stop  offset="6.341186e-07" style="stop-color:#AA0034"/>
	<stop  offset="1" style="stop-color:#170094"/>
</linearGradient>
<line style="fill:none;stroke:url(#SVGID_00000170968560246844994970000000856201694514125212_);stroke-width:2;stroke-miterlimit:10;" x1="2801.5" y1="1474" x2="4514.5" y2="1474"/>
<g>
	<rect x="2861.1" y="1550" class="st9" width="331.2" height="385"/>
	<rect x="3275.4" y="1550" class="st9" width="331.2" height="385"/>
	<rect x="3698.4" y="1550" class="st9" width="331.2" height="385"/>
	<rect x="4123.7" y="1550" class="st9" width="331.2" height="385"/>
</g>
<rect x="2940.5" y="2016.1" style="fill:none;" width="1452.5" height="423.6"/>
<text transform="matrix(1 0 0 1 2940.4766 2042.3457)"><tspan x="0" y="0" class="st9" style="font-family:'Acuta-Medium'; font-size:35px;">Lorem</tspan><tspan x="102.4" y="0" class="st9" style="font-family:'Acuta-Medium'; font-size:35px; letter-spacing:2;"> </tspan><tspan x="113.3" y="0" class="st9" style="font-family:'Acuta-Medium'; font-size:35px;">ipsum</tspan><tspan x="213.3" y="0" class="st9" style="font-family:'Acuta-Medium'; font-size:35px; letter-spacing:2;"> </tspan><tspan x="224.2" y="0" class="st9" style="font-family:'Acuta-Medium'; font-size:35px;">dolor</tspan><tspan x="311" y="0" class="st9" style="font-family:'Acuta-Medium'; font-size:35px; letter-spacing:2;"> </tspan><tspan x="321.9" y="0" class="st9" style="font-family:'Acuta-Medium'; font-size:35px;">sit</tspan><tspan x="362.2" y="0" class="st9" style="font-family:'Acuta-Medium'; font-size:35px; letter-spacing:2;"> </tspan><tspan x="373.1" y="0" class="st9" style="font-family:'Acuta-Medium'; font-size:35px;">amet,</tspan><tspan x="467.8" y="0" class="st9" style="font-family:'Acuta-Medium'; font-size:35px; letter-spacing:2;"> </tspan><tspan x="478.7" y="0" class="st9" style="font-family:'Acuta-Medium'; font-size:35px;">consectetuer</tspan><tspan x="686.4" y="0" class="st9" style="font-family:'Acuta-Medium'; font-size:35px; letter-spacing:2;"> </tspan><tspan x="697.3" y="0" class="st9" style="font-family:'Acuta-Medium'; font-size:35px;">adipiscing</tspan><tspan x="864.4" y="0" class="st9" style="font-family:'Acuta-Medium'; font-size:35px; letter-spacing:2;"> </tspan><tspan x="875.3" y="0" class="st9" style="font-family:'Acuta-Medium'; font-size:35px;">elit,</tspan><tspan x="939.6" y="0" class="st9" style="font-family:'Acuta-Medium'; font-size:35px; letter-spacing:2;"> </tspan><tspan x="950.5" y="0" class="st9" style="font-family:'Acuta-Medium'; font-size:35px;">sed</tspan><tspan x="1005.3" y="0" class="st9" style="font-family:'Acuta-Medium'; font-size:35px; letter-spacing:2;"> </tspan><tspan x="1016.2" y="0" class="st9" style="font-family:'Acuta-Medium'; font-size:35px;">diam</tspan><tspan x="1099.3" y="0" class="st9" style="font-family:'Acuta-Medium'; font-size:35px; letter-spacing:2;"> </tspan><tspan x="1110.2" y="0" class="st9" style="font-family:'Acuta-Medium'; font-size:35px;">nonummy</tspan><tspan x="1275.9" y="0" class="st9" style="font-family:'Acuta-Medium'; font-size:35px; letter-spacing:2;"> </tspan><tspan x="1286.8" y="0" class="st9" style="font-family:'Acuta-Medium'; font-size:35px;">nibh</tspan><tspan x="1360.9" y="0" class="st9" style="font-family:'Acuta-Medium'; font-size:35px; letter-spacing:2;"> </tspan><tspan x="1371.7" y="0" class="st9" style="font-family:'Acuta-Medium'; font-size:35px;">euis</tspan><tspan x="1437.4" y="0" class="st9" style="font-family:'Acuta-Medium'; font-size:35px;">-</tspan><tspan x="0" y="42" class="st9" style="font-family:'Acuta-Medium'; font-size:35px;">mod</tspan><tspan x="72.6" y="42" class="st9" style="font-family:'Acuta-Medium'; font-size:35px; letter-spacing:15;"> </tspan><tspan x="96.3" y="42" class="st9" style="font-family:'Acuta-Medium'; font-size:35px;">tincidunt</tspan><tspan x="247.5" y="42" class="st9" style="font-family:'Acuta-Medium'; font-size:35px; letter-spacing:15;"> </tspan><tspan x="271.3" y="42" class="st9" style="font-family:'Acuta-Medium'; font-size:35px;">ut</tspan><tspan x="306.7" y="42" class="st9" style="font-family:'Acuta-Medium'; font-size:35px; letter-spacing:15;"> </tspan><tspan x="330.4" y="42" class="st9" style="font-family:'Acuta-Medium'; font-size:35px;">laoreet</tspan><tspan x="445.7" y="42" class="st9" style="font-family:'Acuta-Medium'; font-size:35px; letter-spacing:15;"> </tspan><tspan x="469.4" y="42" class="st9" style="font-family:'Acuta-Medium'; font-size:35px;">dolore</tspan><tspan x="574.2" y="42" class="st9" style="font-family:'Acuta-Medium'; font-size:35px; letter-spacing:15;"> </tspan><tspan x="597.9" y="42" class="st9" style="font-family:'Acuta-Medium'; font-size:35px;">magna</tspan><tspan x="710.5" y="42" class="st9" style="font-family:'Acuta-Medium'; font-size:35px; letter-spacing:15;"> </tspan><tspan x="734.2" y="42" class="st9" style="font-family:'Acuta-Medium'; font-size:35px;">aliquam</tspan><tspan x="868.5" y="42" class="st9" style="font-family:'Acuta-Medium'; font-size:35px; letter-spacing:15;"> </tspan><tspan x="892.2" y="42" class="st9" style="font-family:'Acuta-Medium'; font-size:35px;">erat</tspan><tspan x="959.2" y="42" class="st9" style="font-family:'Acuta-Medium'; font-size:35px; letter-spacing:15;"> </tspan><tspan x="982.9" y="42" class="st9" style="font-family:'Acuta-Medium'; font-size:35px;">volutpat.</tspan><tspan x="1132.6" y="42" class="st9" style="font-family:'Acuta-Medium'; font-size:35px; letter-spacing:15;"> </tspan><tspan x="1156.3" y="42" class="st9" style="font-family:'Acuta-Medium'; font-size:35px;">Ut</tspan><tspan x="1196.1" y="42" class="st9" style="font-family:'Acuta-Medium'; font-size:35px; letter-spacing:15;"> </tspan><tspan x="1219.9" y="42" class="st9" style="font-family:'Acuta-Medium'; font-size:35px;">wisi</tspan><tspan x="1282.4" y="42" class="st9" style="font-family:'Acuta-Medium'; font-size:35px; letter-spacing:15;"> </tspan><tspan x="1306.1" y="42" class="st9" style="font-family:'Acuta-Medium'; font-size:35px;">enim</tspan><tspan x="1387.6" y="42" class="st9" style="font-family:'Acuta-Medium'; font-size:35px; letter-spacing:15;"> </tspan><tspan x="1411.3" y="42" class="st9" style="font-family:'Acuta-Medium'; font-size:35px;">ad </tspan></text>
<linearGradient id="SVGID_00000134970070783119630280000004068149769451654058_" gradientUnits="userSpaceOnUse" x1="2801.5" y1="2153" x2="4514.5" y2="2153">
	<stop  offset="6.341186e-07" style="stop-color:#AA0034"/>
	<stop  offset="1" style="stop-color:#170094"/>
</linearGradient>
<line style="fill:none;stroke:url(#SVGID_00000134970070783119630280000004068149769451654058_);stroke-width:2;stroke-miterlimit:10;" x1="2801.5" y1="2153" x2="4514.5" y2="2153"/>
<g>
	<rect x="2860.8" y="2239.9" class="st9" width="331.2" height="385"/>
	<rect x="3275.1" y="2239.9" class="st9" width="331.2" height="385"/>
	<rect x="3698.1" y="2239.9" class="st9" width="331.2" height="385"/>
	<rect x="4123.4" y="2239.9" class="st9" width="331.2" height="385"/>
</g>
<rect x="2940.2" y="2706" style="fill:none;" width="1452.5" height="423.6"/>
<text transform="matrix(1 0 0 1 2940.1909 2732.2744)"><tspan x="0" y="0" class="st9" style="font-family:'Acuta-Medium'; font-size:35px;">Lorem</tspan><tspan x="102.4" y="0" class="st9" style="font-family:'Acuta-Medium'; font-size:35px; letter-spacing:2;"> </tspan><tspan x="113.3" y="0" class="st9" style="font-family:'Acuta-Medium'; font-size:35px;">ipsum</tspan><tspan x="213.3" y="0" class="st9" style="font-family:'Acuta-Medium'; font-size:35px; letter-spacing:2;"> </tspan><tspan x="224.2" y="0" class="st9" style="font-family:'Acuta-Medium'; font-size:35px;">dolor</tspan><tspan x="311" y="0" class="st9" style="font-family:'Acuta-Medium'; font-size:35px; letter-spacing:2;"> </tspan><tspan x="321.9" y="0" class="st9" style="font-family:'Acuta-Medium'; font-size:35px;">sit</tspan><tspan x="362.2" y="0" class="st9" style="font-family:'Acuta-Medium'; font-size:35px; letter-spacing:2;"> </tspan><tspan x="373.1" y="0" class="st9" style="font-family:'Acuta-Medium'; font-size:35px;">amet,</tspan><tspan x="467.8" y="0" class="st9" style="font-family:'Acuta-Medium'; font-size:35px; letter-spacing:2;"> </tspan><tspan x="478.7" y="0" class="st9" style="font-family:'Acuta-Medium'; font-size:35px;">consectetuer</tspan><tspan x="686.4" y="0" class="st9" style="font-family:'Acuta-Medium'; font-size:35px; letter-spacing:2;"> </tspan><tspan x="697.3" y="0" class="st9" style="font-family:'Acuta-Medium'; font-size:35px;">adipiscing</tspan><tspan x="864.4" y="0" class="st9" style="font-family:'Acuta-Medium'; font-size:35px; letter-spacing:2;"> </tspan><tspan x="875.3" y="0" class="st9" style="font-family:'Acuta-Medium'; font-size:35px;">elit,</tspan><tspan x="939.6" y="0" class="st9" style="font-family:'Acuta-Medium'; font-size:35px; letter-spacing:2;"> </tspan><tspan x="950.5" y="0" class="st9" style="font-family:'Acuta-Medium'; font-size:35px;">sed</tspan><tspan x="1005.3" y="0" class="st9" style="font-family:'Acuta-Medium'; font-size:35px; letter-spacing:2;"> </tspan><tspan x="1016.2" y="0" class="st9" style="font-family:'Acuta-Medium'; font-size:35px;">diam</tspan><tspan x="1099.3" y="0" class="st9" style="font-family:'Acuta-Medium'; font-size:35px; letter-spacing:2;"> </tspan><tspan x="1110.2" y="0" class="st9" style="font-family:'Acuta-Medium'; font-size:35px;">nonummy</tspan><tspan x="1275.9" y="0" class="st9" style="font-family:'Acuta-Medium'; font-size:35px; letter-spacing:2;"> </tspan><tspan x="1286.8" y="0" class="st9" style="font-family:'Acuta-Medium'; font-size:35px;">nibh</tspan><tspan x="1360.9" y="0" class="st9" style="font-family:'Acuta-Medium'; font-size:35px; letter-spacing:2;"> </tspan><tspan x="1371.7" y="0" class="st9" style="font-family:'Acuta-Medium'; font-size:35px;">euis</tspan><tspan x="1437.4" y="0" class="st9" style="font-family:'Acuta-Medium'; font-size:35px;">-</tspan><tspan x="0" y="42" class="st9" style="font-family:'Acuta-Medium'; font-size:35px;">mod</tspan><tspan x="72.6" y="42" class="st9" style="font-family:'Acuta-Medium'; font-size:35px; letter-spacing:15;"> </tspan><tspan x="96.3" y="42" class="st9" style="font-family:'Acuta-Medium'; font-size:35px;">tincidunt</tspan><tspan x="247.5" y="42" class="st9" style="font-family:'Acuta-Medium'; font-size:35px; letter-spacing:15;"> </tspan><tspan x="271.3" y="42" class="st9" style="font-family:'Acuta-Medium'; font-size:35px;">ut</tspan><tspan x="306.7" y="42" class="st9" style="font-family:'Acuta-Medium'; font-size:35px; letter-spacing:15;"> </tspan><tspan x="330.4" y="42" class="st9" style="font-family:'Acuta-Medium'; font-size:35px;">laoreet</tspan><tspan x="445.7" y="42" class="st9" style="font-family:'Acuta-Medium'; font-size:35px; letter-spacing:15;"> </tspan><tspan x="469.4" y="42" class="st9" style="font-family:'Acuta-Medium'; font-size:35px;">dolore</tspan><tspan x="574.2" y="42" class="st9" style="font-family:'Acuta-Medium'; font-size:35px; letter-spacing:15;"> </tspan><tspan x="597.9" y="42" class="st9" style="font-family:'Acuta-Medium'; font-size:35px;">magna</tspan><tspan x="710.5" y="42" class="st9" style="font-family:'Acuta-Medium'; font-size:35px; letter-spacing:15;"> </tspan><tspan x="734.2" y="42" class="st9" style="font-family:'Acuta-Medium'; font-size:35px;">aliquam</tspan><tspan x="868.5" y="42" class="st9" style="font-family:'Acuta-Medium'; font-size:35px; letter-spacing:15;"> </tspan><tspan x="892.2" y="42" class="st9" style="font-family:'Acuta-Medium'; font-size:35px;">erat</tspan><tspan x="959.2" y="42" class="st9" style="font-family:'Acuta-Medium'; font-size:35px; letter-spacing:15;"> </tspan><tspan x="982.9" y="42" class="st9" style="font-family:'Acuta-Medium'; font-size:35px;">volutpat.</tspan><tspan x="1132.6" y="42" class="st9" style="font-family:'Acuta-Medium'; font-size:35px; letter-spacing:15;"> </tspan><tspan x="1156.3" y="42" class="st9" style="font-family:'Acuta-Medium'; font-size:35px;">Ut</tspan><tspan x="1196.1" y="42" class="st9" style="font-family:'Acuta-Medium'; font-size:35px; letter-spacing:15;"> </tspan><tspan x="1219.9" y="42" class="st9" style="font-family:'Acuta-Medium'; font-size:35px;">wisi</tspan><tspan x="1282.4" y="42" class="st9" style="font-family:'Acuta-Medium'; font-size:35px; letter-spacing:15;"> </tspan><tspan x="1306.1" y="42" class="st9" style="font-family:'Acuta-Medium'; font-size:35px;">enim</tspan><tspan x="1387.6" y="42" class="st9" style="font-family:'Acuta-Medium'; font-size:35px; letter-spacing:15;"> </tspan><tspan x="1411.3" y="42" class="st9" style="font-family:'Acuta-Medium'; font-size:35px;">ad </tspan></text>
<linearGradient id="SVGID_00000145760803579468551170000004691380737917874321_" gradientUnits="userSpaceOnUse" x1="1.2857" y1="72.1905" x2="217.2857" y2="72.1905">
	<stop  offset="6.341186e-07" style="stop-color:#AA0034"/>
	<stop  offset="1" style="stop-color:#170094"/>
</linearGradient>
<path style="fill:none;stroke:url(#SVGID_00000145760803579468551170000004691380737917874321_);stroke-width:2;stroke-miterlimit:10;" d="
	M190.6,139.7H27.9c-14.2,0-25.7-11.5-25.7-25.7V30.3c0-14.2,11.5-25.7,25.7-25.7h162.7c14.2,0,25.7,11.5,25.7,25.7V114
	C216.3,128.2,204.8,139.7,190.6,139.7z"/>
<g>
	<g>
		<path class="st9" d="M31.6,52.7c4.9-4.6,9-6.5,10.8-7.4c1.8-0.9,11.2-5.4,21.5-0.3c10.2,5.1,6,18.5,2.9,20.1c-4.9,2.4-7,0-3.9-5.4
			c2-5.4-3.1-10.9-7.2-8.5c-3,0.8-9.9,9.3-12.9,14.7c-9.3,14.7,1.9,14.7,6,16.3c14.2,6.2,17.1,10,18.1,18.5
			c0.7,13.7-12,19.3-16.1,20.1c-6,1.6-18.1,0.9-22.1-0.7c-4.9-2.4-7.1-4.7-7.1-11.7c0-6.2,2-10.1,6.1-9.3c2,0,2,0.1,2,6.3
			c-1.8,11.6,6,10.1,9,7c6-5.4,9.1-13.3,7.1-18.6c-1-5.4-7-8.4-18.1-10.8c-7.9-1.7-8.1-9.3-6.1-14.7C23.5,62.8,26.6,58.1,31.6,52.7z
			"/>
		<path class="st9" d="M71.6,69.2c-0.6-22.2-0.2-25.1,3-26.5c0.6,0,3.8,0,6.3,0c6.3,0,10.8,1.3,11.3,3.8
			c-1.5,15.7,0.7,37.2,0.7,36.7c0,0,1.6-6.4,2.9-10.2c3.8-10.7,6.9-20.3,10.7-24.4c1.9-1.8,4.4-2.2,5.7-1c0.6,0.6,1.1,3.5,1.1,21.3
			c0,20.3,0,20.3,1.9,11c4.4-19.1,6.4-25.6,8.3-27.9c1.3-1.2,4.4-1.2,5.7,0.6c1.9,2.9,3.8,16.3,4.4,32.5c1.1,22.9,6.5,31.3,7,31.9
			c5.5,8.3-4.5,8.8-6.4,7c-4.4-4-6.9-15.6-8.8-37.1c0-7.5-0.8-12.7-1.3-12.1c-1.3,2.2-3.9,19.1-4.5,31.2c0.3,21.9-9.5,19.2-10.1,18
			c-2.5-2.2-3.9-19.2-4.5-40.7c-0.6-17.9-0.6-17.9-1.9-13.8c-1.9,4.6-8,18.6-8.4,29.2c0.9,16.6-3,22.2-6.9,22.2
			c-4.4,0.4-7.5-1.6-10-5.4C74.6,111.2,72.9,96.3,71.6,69.2z"/>
		<path class="st9" d="M152.6,56.3c1.6-9.4,2.4-12.5,4.8-13.1c4-0.7,9.9,0.6,12.4,2.5c1.6,1.2,1.6,1.9,1.6,4.4
			c0,1.9,11.5,32,11.5,32.7c0.9,0,7.6-1.9,11.7-3.1c4.5-0.6,5.2,3.9,0.3,5.3c-1.6,0-10.3,3.6-10.3,3.6c0,1.2,7,20.9,11.2,25.3
			c1.6,3.1-1.5,5.3-4.4,4.2c-6.4-2.8-13.9-27.6-13.9-27.6c-5.3,1.5-12.2,2.5-12.2,2.5s-3.9,14.7-9.3,20.2c-7,5.8-15.5,1.6-18-0.7
			c-3-2.7,4-17.9,4-17.9c-4.9,0-4.9-6.1,1.6-5.2C143.5,89.2,149.1,75.8,152.6,56.3z M167.2,85.8c0,0,7.3-1.2,8.2-1.9l-4.9-15.7
			C168.9,72.6,167.2,85.8,167.2,85.8z"/>
	</g>
	<path class="st9" d="M70.7,32c-2.2-2.5,0.8-9.9,4.7-11.1c12.1-3.4,17.2,0,21.7,2.9c5.9,5.6,0.7,14.2-12.3,13.7
		C81.8,37.1,75.5,37.3,70.7,32z"/>
</g>
</svg>
